#!OML:ASF H:\LiuWeirdWalks\Patient Classification 1\Patient 1\Session 1\male.ASF
:FULLY-SPECIFIED
:DEGREES
330
root 1.14448 17.6424 -28.9686 3.34476 15.2701 3.13782
lowerback 6.05969 -2.10605 -0.997931
upperback 0.888791 -2.6898 6.26923
thorax -2.12803 -1.31607 7.3228
lowerneck -20.5429 -4.60541 -4.59058
upperneck 38.2975 -2.93089 -5.27846
head 17.6426 -2.59348 -2.20974
rclavicle 6.91771e-014 2.70347e-014
rhumerus -38.1871 -76.0725 42.8013
rradius 21.2009
rwrist 17.0975
rhand -14.8421 4.49571
rfingers 7.12502
rthumb 11.317 -25.179
lclavicle 6.91771e-014 2.70347e-014
lhumerus -15.7151 29.704 -18.5266
lradius 22.7211
lwrist -15.3593
lhand -16.6276 6.58633
lfingers 7.12502
lthumb 9.59468 36.3478
rfemur -3.50878 -2.03601 4.61535
rtibia 33.1441
rfoot -13.1862 -22.5547
rtoes -12.9593
lfemur -6.77727 2.51849 -26.3829
ltibia 28.5876
lfoot -16.8582 13.2283
ltoes -9.74869
331
root 1.16507 17.6371 -28.9608 3.36764 15.4037 3.24923
lowerback 6.10953 -2.23052 -1.0146
upperback 1.06238 -2.85672 6.51238
thorax -1.93954 -1.40695 7.60265
lowerneck -20.889 -4.63139 -5.30151
upperneck 38.1466 -2.71389 -5.11883
head 17.6861 -2.58831 -1.97571
rclavicle 1.63003e-014 2.8625e-014
rhumerus -38.6411 -77.108 43.3496
rradius 21.0722
rwrist 17.5973
rhand -14.8509 4.49806
rfingers 7.12502
rthumb 11.3085 -25.1771
lclavicle 1.63003e-014 2.8625e-014
lhumerus -16.4331 29.6139 -18.489
lradius 22.8495
lwrist -15.1649
lhand -16.6259 7.2165
lfingers 7.12502
lthumb 9.59626 36.9779
rfemur -3.69238 -2.18892 4.4007
rtibia 33.6783
rfoot -13.1835 -22.443
rtoes -13.0803
lfemur -6.71209 2.4754 -26.556
ltibia 28.5526
lfoot -16.8709 13.178
ltoes -9.79459
332
root 1.18487 17.6322 -28.9539 3.39822 15.5306 3.35073
lowerback 6.15524 -2.21907 -1.01891
upperback 1.06985 -2.83951 6.54464
thorax -1.95779 -1.39775 7.64119
lowerneck -20.6813 -4.71478 -5.3314
upperneck 37.9971 -2.84513 -5.13714
head 17.5495 -2.64543 -1.99013
rclavicle 4.85035e-014 1.90833e-014
rhumerus -39.2158 -76.9673 43.7452
rradius 21.0646
rwrist 17.513
rhand -14.8409 4.43743
rfingers 7.12502
rthumb 11.3182 -25.2372
lclavicle 4.85035e-014 1.90833e-014
lhumerus -16.3778 29.4554 -18.2814
lradius 22.8684
lwrist -15.2191
lhand -16.7385 7.3087
lfingers 7.12502
lthumb 9.48765 37.0751
rfemur -3.9155 -2.33952 4.20167
rtibia 34.249
rfoot -13.1718 -22.3415
rtoes -13.1879
lfemur -6.66264 2.42286 -26.7178
ltibia 28.5203
lfoot -16.8817 13.1372
ltoes -9.82853
333
root 1.20431 17.627 -28.947 3.43143 15.6512 3.46747
lowerback 6.21977 -2.22024 -1.03809
upperback 1.06523 -2.83895 6.5839
thorax -1.99571 -1.39613 7.69857
lowerneck -20.4779 -4.76072 -5.32739
upperneck 37.8372 -2.91653 -5.19485
head 17.408 -2.67957 -2.01526
rclavicle -3.97569e-016 -7.31528e-014
rhumerus -39.5009 -76.8405 43.8659
rradius 21.0509
rwrist 17.4507
rhand -14.8664 4.36934
rfingers 7.12502
rthumb 11.2936 -25.3066
lclavicle -3.97569e-016 -7.31528e-014
lhumerus -16.378 29.2685 -18.0953
lradius 22.8705
lwrist -15.3416
lhand -16.8808 7.47247
lfingers 7.12502
lthumb 9.35041 37.2451
rfemur -4.16379 -2.51006 3.98407
rtibia 34.861
rfoot -13.1302 -22.2331
rtoes -13.3093
lfemur -6.6111 2.38072 -26.894
ltibia 28.4894
lfoot -16.8994 13.0911
ltoes -9.85372
334
root 1.22294 17.6218 -28.9403 3.4641 15.7557 3.57435
lowerback 6.28578 -2.2141 -1.04295
upperback 1.0718 -2.82826 6.61656
thorax -2.02532 -1.38988 7.73952
lowerneck -20.3873 -4.80524 -5.31758
upperneck 37.7009 -2.97751 -5.25237
head 17.3089 -2.70939 -2.04446
rclavicle 5.76476e-014 -6.67916e-014
rhumerus -39.8677 -76.7174 44.0649
rradius 21.0358
rwrist 17.3955
rhand -14.8716 4.32328
rfingers 7.12502
rthumb 11.2886 -25.3529
lclavicle 5.76476e-014 -6.67916e-014
lhumerus -16.3595 29.2275 -17.929
lradius 22.8613
lwrist -15.3577
lhand -16.9086 7.50484
lfingers 7.12502
lthumb 9.3235 37.2787
rfemur -4.44921 -2.67294 3.78383
rtibia 35.5155
rfoot -13.0544 -22.1358
rtoes -13.4333
lfemur -6.56547 2.34207 -27.0579
ltibia 28.4602
lfoot -16.9171 13.054
ltoes -9.86366
335
root 1.24071 17.6169 -28.9336 3.49088 15.8465 3.66231
lowerback 6.37566 -2.17937 -1.05513
upperback 1.11797 -2.78065 6.66096
thorax -2.03134 -1.36634 7.79479
lowerneck -20.3597 -4.99974 -5.61265
upperneck 37.5041 -3.21463 -5.12784
head 17.2083 -2.82756 -1.97477
rclavicle -3.02153e-014 -2.54444e-014
rhumerus -40.6252 -76.6386 44.6757
rradius 21.0262
rwrist 17.3277
rhand -14.8564 4.28983
rfingers 7.12502
rthumb 11.3032 -25.3856
lclavicle -3.02153e-014 -2.54444e-014
lhumerus -16.2987 29.4266 -17.7213
lradius 22.8314
lwrist -15.443
lhand -16.8664 7.55179
lfingers 7.12502
lthumb 9.36424 37.3238
rfemur -4.76887 -2.82236 3.61366
rtibia 36.2146
rfoot -12.9563 -22.0624
rtoes -13.5611
lfemur -6.51904 2.30218 -27.1996
ltibia 28.4275
lfoot -16.9309 13.0276
ltoes -9.87415
336
root 1.2578 17.6128 -28.9266 3.50584 15.9202 3.7147
lowerback 6.46908 -2.14495 -1.03316
upperback 1.1736 -2.73111 6.71424
thorax -2.03107 -1.34228 7.83951
lowerneck -20.3836 -5.19434 -5.92355
upperneck 37.3712 -3.44894 -4.9773
head 17.1584 -2.94336 -1.89614
rclavicle 1.07344e-014 9.54166e-015
rhumerus -41.3075 -76.5711 45.2133
rradius 21.0134
rwrist 17.2807
rhand -14.8685 4.2544
rfingers 7.12502
rthumb 11.2916 -25.4217
lclavicle 1.07344e-014 9.54166e-015
lhumerus -16.2558 29.7017 -17.5399
lradius 22.8147
lwrist -15.3532
lhand -16.7004 7.47726
lfingers 7.12502
lthumb 9.52438 37.242
rfemur -5.12361 -2.94377 3.49538
rtibia 36.9567
rfoot -12.8529 -22.0187
rtoes -13.6512
lfemur -6.47089 2.26861 -27.3004
ltibia 28.3886
lfoot -16.9357 13.0098
ltoes -9.87589
337
root 1.27502 17.6084 -28.9189 3.51913 15.985 3.79225
lowerback 6.57215 -2.10427 -1.02754
upperback 1.24046 -2.675 6.75309
thorax -2.02541 -1.31524 7.87769
lowerneck -20.4033 -5.40691 -6.26068
upperneck 37.2229 -3.71754 -4.78469
head 17.103 -3.07018 -1.80088
rclavicle -1.55052e-014 3.49861e-014
rhumerus -41.9761 -76.4803 45.7358
rradius 21.0089
rwrist 17.1762
rhand -14.877 4.22213
rfingers 7.12502
rthumb 11.2834 -25.4544
lclavicle -1.55052e-014 3.49861e-014
lhumerus -16.2116 29.9222 -17.3595
lradius 22.8159
lwrist -15.1969
lhand -16.5088 7.47009
lfingers 7.12502
lthumb 9.70931 37.2263
rfemur -5.49838 -3.07939 3.34795
rtibia 37.7431
rfoot -12.7142 -21.9803
rtoes -13.7483
lfemur -6.4031 2.23647 -27.4288
ltibia 28.3368
lfoot -16.9369 12.9987
ltoes -9.88167
338
root 1.29228 17.604 -28.9107 3.52849 16.0517 3.88646
lowerback 6.6754 -2.05552 -1.04143
upperback 1.32111 -2.6104 6.78374
thorax -2.00622 -1.28448 7.91713
lowerneck -20.4007 -5.65556 -6.64769
upperneck 37.0988 -4.05146 -4.51947
head 17.0616 -3.21948 -1.67926
rclavicle 2.18663e-014 -2.8625e-014
rhumerus -42.609 -76.3342 46.2239
rradius 21.0152
rwrist 17.0179
rhand -14.8868 4.18388
rfingers 7.12502
rthumb 11.2739 -25.4932
lclavicle 2.18663e-014 -2.8625e-014
lhumerus -16.1518 30.083 -17.1604
lradius 22.8319
lwrist -14.9915
lhand -16.3389 7.57969
lfingers 7.12502
lthumb 9.8732 37.3282
rfemur -5.88698 -3.22933 3.18234
rtibia 38.5716
rfoot -12.5746 -21.9485
rtoes -13.7902
lfemur -6.31483 2.21129 -27.5735
ltibia 28.2705
lfoot -16.9346 12.9788
ltoes -9.89234
339
root 1.30976 17.5991 -28.9021 3.5406 16.131 4.02327
lowerback 6.78611 -2.03486 -1.07399
upperback 1.35737 -2.58299 6.79645
thorax -2.03213 -1.27041 7.95259
lowerneck -20.3571 -5.76742 -6.75866
upperneck 36.99 -4.21705 -4.43963
head 17.0011 -3.28895 -1.65166
rclavicle -2.54444e-014 3.18055e-014
rhumerus -42.7171 -76.132 46.1887
rradius 21.023
rwrist 16.8529
rhand -14.8957 4.14786
rfingers 7.12502
rthumb 11.2653 -25.5296
lclavicle -2.54444e-014 3.18055e-014
lhumerus -16.1359 30.0144 -17.0052
lradius 22.8615
lwrist -14.7715
lhand -16.2327 7.68634
lfingers 7.12502
lthumb 9.97567 37.4299
rfemur -6.28598 -3.42173 2.96391
rtibia 39.4441
rfoot -12.4204 -21.9087
rtoes -13.791
lfemur -6.20127 2.17945 -27.7641
ltibia 28.188
lfoot -16.9305 12.9532
ltoes -9.9075
340
root 1.32705 17.594 -28.8935 3.55768 16.2213 4.18276
lowerback 6.8766 -1.97509 -1.1047
upperback 1.40812 -2.50619 6.75053
thorax -2.04173 -1.23227 7.91778
lowerneck -20.1991 -5.96661 -6.87009
upperneck 36.8299 -4.56877 -4.26001
head 16.8893 -3.41855 -1.61018
rclavicle -9.14409e-015 -1.59028e-014
rhumerus -43.3663 -75.8135 46.6523
rradius 21.0563
rwrist 16.6639
rhand -14.848 4.13187
rfingers 7.12502
rthumb 11.3114 -25.5431
lclavicle -9.14409e-015 -1.59028e-014
lhumerus -15.9306 29.9324 -16.7729
lradius 22.849
lwrist -14.8484
lhand -16.3511 7.88223
lfingers 7.12502
lthumb 9.86147 37.6313
rfemur -6.7042 -3.64028 2.72132
rtibia 40.3567
rfoot -12.2245 -21.8745
rtoes -13.7759
lfemur -6.07841 2.15162 -27.9763
ltibia 28.0977
lfoot -16.9298 12.9123
ltoes -9.92931
341
root 1.34397 17.5888 -28.8848 3.57791 16.3144 4.35635
lowerback 6.96878 -1.95103 -1.15793
upperback 1.42839 -2.47669 6.73082
thorax -2.0749 -1.21665 7.92924
lowerneck -20.0712 -6.02901 -6.78134
upperneck 36.6764 -4.70677 -4.28305
head 16.7722 -3.46392 -1.64982
rclavicle 4.37326e-014 0
rhumerus -43.5228 -75.5772 46.6785
rradius 21.0811
rwrist 16.518
rhand -14.7755 4.12858
rfingers 7.12502
rthumb 11.3813 -25.5426
lclavicle 4.37326e-014 0
lhumerus -15.8509 29.755 -16.6032
lradius 22.8311
lwrist -15.015
lhand -16.5037 8.09602
lfingers 7.12502
lthumb 9.71417 37.852
rfemur -7.14518 -3.87417 2.46484
rtibia 41.3074
rfoot -11.9981 -21.8393
rtoes -13.7032
lfemur -5.95183 2.12886 -28.2018
ltibia 28.0059
lfoot -16.9319 12.8659
ltoes -9.95904
342
root 1.36001 17.5837 -28.8766 3.59645 16.4045 4.50485
lowerback 7.05411 -1.95928 -1.18338
upperback 1.41287 -2.48645 6.72674
thorax -2.13633 -1.2194 7.94544
lowerneck -19.9567 -5.95212 -6.45992
upperneck 36.5443 -4.64573 -4.4997
head 16.6511 -3.42498 -1.77442
rclavicle 3.18055e-015 8.5875e-014
rhumerus -43.273 -75.3941 46.3269
rradius 21.0927
rwrist 16.4553
rhand -14.7084 4.14114
rfingers 7.12502
rthumb 11.446 -25.5264
lclavicle 3.18055e-015 8.5875e-014
lhumerus -15.8658 29.4165 -16.505
lradius 22.7911
lwrist -15.3135
lhand -16.7938 8.11618
lfingers 7.12502
lthumb 9.43433 37.885
rfemur -7.62186 -4.09901 2.24763
rtibia 42.2909
rfoot -11.7281 -21.8304
rtoes -13.5839
lfemur -5.83628 2.09403 -28.3998
ltibia 27.9197
lfoot -16.9319 12.835
ltoes -9.98664
343
root 1.3752 17.5791 -28.868 3.60426 16.4705 4.61924
lowerback 7.13853 -1.95681 -1.20035
upperback 1.42982 -2.48195 6.75007
thorax -2.16458 -1.21647 7.98425
lowerneck -19.9068 -5.93351 -6.30501
upperneck 36.3735 -4.62941 -4.64608
head 16.5382 -3.4171 -1.85012
rclavicle 5.84427e-014 0
rhumerus -43.2906 -75.3544 46.2875
rradius 21.1013
rwrist 16.4903
rhand -14.6492 4.16971
rfingers 7.12502
rthumb 11.5031 -25.4947
lclavicle 5.84427e-014 0
lhumerus -15.9011 29.2099 -16.4011
lradius 22.7303
lwrist -15.7266
lhand -17.0935 8.11506
lfingers 7.12502
lthumb 9.14508 37.8968
rfemur -8.13214 -4.29288 2.07979
rtibia 43.3016
rfoot -11.401 -21.8468
rtoes -13.4315
lfemur -5.7225 2.07626 -28.5591
ltibia 27.8361
lfoot -16.9367 12.8109
ltoes -10.0109
